<svg width="305" height="71" viewBox="0 0 305 71" fill="none" xmlns="http://www.w3.org/2000/svg">
<path d="M27.0966 44.0911L13.1617 40.9124C8.55043 39.8858 5.29861 38.1807 3.40626 35.7971C1.51318 33.3469 0.542317 29.8552 0.493657 25.3221C0.420667 18.5225 2.23359 13.5066 5.93244 10.2742C9.63128 7.0419 15.4139 5.39148 23.2803 5.32297C26.5468 5.29452 29.4485 5.43592 31.9853 5.74717C34.5881 5.99118 36.9926 6.40359 39.199 6.98439L39.3149 17.7838C35.5072 17.0836 32.4689 16.6434 30.2002 16.4631C27.9308 16.2162 25.5961 16.1032 23.1962 16.1241C19.1963 16.1589 16.3699 16.8169 14.7169 18.098C13.0632 19.3124 12.2524 21.4196 12.2846 24.4194C12.3032 26.1526 12.6509 27.483 13.3275 28.4105C14.0701 29.2707 15.2769 29.8935 16.9478 30.279L30.4816 33.3613C33.6227 34.0673 35.9642 34.8136 37.506 35.6002C39.0472 36.3201 40.3238 37.2423 41.3359 38.3669C42.3495 39.6248 43.0996 41.185 43.5863 43.0475C44.1397 44.9094 44.431 47.2069 44.4603 49.9401C44.5362 57.0064 42.724 62.089 39.0237 65.188C35.3234 68.287 29.5401 69.8708 21.6737 69.9393C17.6072 69.9747 13.6712 69.7423 9.86561 69.2421C6.12669 68.7413 3.18631 68.1002 1.04447 67.3188L0.923182 56.0195C3.79904 56.8611 7.03977 57.5329 10.6454 58.0349C14.3169 58.4696 17.9526 58.6713 21.5525 58.6399C25.4856 58.6057 28.2131 58.0486 29.735 56.9686C31.3227 55.8214 32.0995 53.6479 32.0651 50.4481C32.0436 48.4482 31.6949 47.0178 31.019 46.157C30.409 45.229 29.1015 44.5403 27.0966 44.0911ZM78.2788 57.7459L78.3851 67.6453C77.2568 68.1218 75.6612 68.5357 73.5981 68.887C71.6025 69.3044 69.7714 69.5204 68.1048 69.5349C61.7717 69.5901 57.2239 68.2629 54.4613 65.5536C51.698 62.7775 50.2817 58.1564 50.2123 51.6901L49.9697 29.0914L43.3699 29.1489L43.2658 19.4494L50.1655 19.3893L51.6388 7.57607L61.3385 7.4916L61.4651 19.2909L77.2645 19.1533L77.3686 28.8528L61.5692 28.9904L61.8075 51.1891C61.839 54.1222 62.4938 56.1166 63.7719 57.1722C65.0499 58.2278 67.3222 58.7413 70.5888 58.7129C71.7221 58.703 73.0546 58.6247 74.5865 58.4781C76.1176 58.2647 77.3484 58.0206 78.2788 57.7459ZM92.6919 68.4207L81.0923 68.5218L80.562 19.1246L91.2616 19.0314L91.8046 23.0268L92.1045 23.0242C94.5554 21.5362 97.0431 20.3811 99.5678 19.5591C102.092 18.7371 104.555 18.3156 106.955 18.2947C107.621 18.2889 108.055 18.2851 108.255 18.2834C108.521 18.2811 108.722 18.3127 108.856 18.3782L108.976 29.5775C108.574 29.4477 108.04 29.3857 107.374 29.3915C106.773 29.33 105.706 29.306 104.173 29.3193C101.84 29.3397 99.6751 29.5585 97.6795 29.9759C95.6838 30.3933 93.89 30.9756 92.2979 31.7228L92.6919 68.4207ZM123.737 11.7483L111.437 11.8555L111.329 1.75603L123.628 1.64891L123.737 11.7483ZM124.042 68.1477L112.443 68.2487L111.912 18.8516L123.512 18.7505L124.042 68.1477ZM142.285 47.6881L142.502 67.9869L130.903 68.0879L130.189 1.59178L141.789 1.49075L142.184 38.2886L146.384 38.2521L160.971 18.4243L174.771 18.3041L156.128 42.3673L176.301 67.6926L162.002 67.8171L146.584 47.6506L142.285 47.6881ZM213.426 55.2688L213.527 64.6683C211.871 65.6827 209.247 66.5723 205.655 67.3369C202.129 68.0343 198.433 68.3998 194.566 68.4335C186.7 68.502 181.012 66.5515 177.503 62.5819C174.06 58.6118 172.289 52.0269 172.19 42.8275C172.095 33.9613 173.826 27.4793 177.382 23.3816C180.938 19.2838 186.616 17.2009 194.416 17.133C201.949 17.0674 207.299 18.5875 210.466 21.6934C213.632 24.7992 215.257 30.152 215.338 37.7515C215.353 39.1514 215.334 40.4516 215.28 41.6522C215.226 42.786 215.109 44.3871 214.932 46.4554L183.933 46.7253C184.044 50.8579 184.975 53.7499 186.726 55.4013C188.544 57.0522 191.719 57.8579 196.253 57.8184C199.252 57.7923 202.35 57.532 205.545 57.0375C208.74 56.543 211.367 55.9534 213.426 55.2688ZM194.524 27.2324C190.458 27.2678 187.633 28.0924 186.05 29.7063C184.534 31.3196 183.799 34.2261 183.844 38.4258L204.743 38.2438L204.72 36.1439C204.617 32.7447 203.826 30.4182 202.345 29.1644C200.864 27.8439 198.257 27.1999 194.524 27.2324Z" fill="#1500F6"/>
<path d="M230.058 67.2244L218.758 67.3228L218.639 56.2234L229.939 56.125L230.058 67.2244ZM242.998 67.1117L230.398 67.2214L253.724 4.31601L266.124 4.20802L290.396 66.6989L277.797 66.8086L273.159 54.0485L247.26 54.2741L242.998 67.1117ZM259.748 15.764C259.042 18.3035 258.237 20.9773 257.334 23.7853C256.497 26.5927 255.692 29.1998 254.917 31.6066L250.654 44.3442L269.553 44.1796L265.017 31.5186C264.261 29.3918 263.401 26.9325 262.438 24.1408C261.474 21.2825 260.577 18.4902 259.748 15.764ZM304.165 3.87672L304.838 66.5731L292.838 66.6776L292.165 3.98122L304.165 3.87672Z" fill="white"/>
</svg>
