<svg width="501" height="72" viewBox="0 0 501 72" fill="none" xmlns="http://www.w3.org/2000/svg">
<path d="M27.6335 45.94L13.6986 42.7612C9.08733 41.7347 5.83552 40.0296 3.94316 37.646C2.05009 35.1957 1.07922 31.704 1.03056 27.171C0.957571 20.3714 2.7705 15.3554 6.46934 12.1231C10.1682 8.89073 15.9508 7.24031 23.8172 7.1718C27.0837 7.14335 29.9854 7.28475 32.5222 7.596C35.125 7.84001 37.5295 8.25242 39.7359 8.83322L39.8518 19.6326C36.0441 18.9324 33.0058 18.4922 30.7371 18.3119C28.4677 18.065 26.133 17.952 23.7331 17.9729C19.7332 18.0078 16.9068 18.6657 15.2538 19.9468C13.6001 21.1613 12.7893 23.2684 12.8215 26.2682C12.8401 28.0015 13.1878 29.3318 13.8644 30.2593C14.607 31.1195 15.8138 31.7424 17.4847 32.1278L31.0185 35.2101C34.1596 35.9161 36.5011 36.6624 38.0429 37.449C39.5841 38.1689 40.8607 39.0912 41.8729 40.2157C42.8864 41.4736 43.6365 43.0338 44.1232 44.8963C44.6766 46.7582 44.9679 49.0558 44.9972 51.7889C45.0731 58.8552 43.2609 63.9378 39.5606 67.0368C35.8603 70.1358 30.077 71.7196 22.2107 71.7881C18.1441 71.8235 14.2081 71.5911 10.4025 71.0909C6.6636 70.5901 3.72322 69.949 1.58138 69.1677L1.46009 57.8683C4.33595 58.71 7.57667 59.3818 11.1823 59.8837C14.8538 60.3184 18.4895 60.5201 22.0894 60.4888C26.0225 60.4545 28.75 59.8974 30.2719 58.8174C31.8596 57.6702 32.6364 55.4967 32.602 52.2969C32.5805 50.297 32.2318 48.8667 31.5559 48.0059C30.9459 47.0778 29.6384 46.3892 27.6335 45.94ZM78.8157 59.5947L78.922 69.4941C77.7937 69.9706 76.1981 70.3845 74.1351 70.7359C72.1394 71.1533 70.3083 71.3692 68.6417 71.3837C62.3086 71.4389 57.7608 70.1118 54.9982 67.4024C52.2349 64.6264 50.8186 60.0052 50.7492 53.5389L50.5066 30.9402L43.9068 30.9977L43.8027 21.2983L50.7024 21.2382L52.1757 9.4249L61.8754 9.34043L62.002 21.1397L77.8014 21.0021L77.9055 30.7016L62.1061 30.8392L62.3444 53.0379C62.3759 55.9711 63.0307 57.9654 64.3088 59.021C65.5868 60.0766 67.8591 60.5902 71.1257 60.5617C72.259 60.5518 73.5915 60.4736 75.1234 60.3269C76.6545 60.1135 77.8853 59.8695 78.8157 59.5947ZM93.2288 70.2696L81.6292 70.3706L81.099 20.9734L91.7985 20.8802L92.3415 24.8757L92.6414 24.873C95.0923 23.385 97.58 22.2299 100.105 21.4079C102.629 20.5859 105.092 20.1645 107.492 20.1436C108.158 20.1377 108.591 20.134 108.791 20.1322C109.058 20.1299 109.258 20.1615 109.393 20.227L109.513 31.4264C109.111 31.2965 108.577 31.2345 107.911 31.2403C107.31 31.1789 106.243 31.1548 104.71 31.1682C102.376 31.1885 100.212 31.4074 98.2164 31.8247C96.2207 32.2421 94.4269 32.8244 92.8348 33.5717L93.2288 70.2696ZM124.274 13.5972L111.974 13.7043L111.866 3.60486L124.165 3.49774L124.274 13.5972ZM124.579 69.9965L112.98 70.0975L112.449 20.7004L124.049 20.5994L124.579 69.9965ZM142.821 49.5369L143.039 69.8357L131.44 69.9368L130.726 3.4406L142.326 3.33958L142.721 40.1375L146.92 40.1009L161.508 20.2731L175.308 20.1529L156.665 44.2162L176.838 69.5414L162.539 69.6659L147.121 49.4995L142.821 49.5369ZM213.963 57.1176L214.064 66.5171C212.408 67.5315 209.784 68.4211 206.192 69.1857C202.666 69.8831 198.97 70.2487 195.103 70.2823C187.237 70.3509 181.549 68.4003 178.04 64.4307C174.597 60.4606 172.826 53.8758 172.727 44.6763C172.632 35.8101 174.363 29.3282 177.919 25.2304C181.475 21.1326 187.153 19.0497 194.953 18.9818C202.486 18.9162 207.836 20.4363 211.002 23.5422C214.169 26.6481 215.794 32.0008 215.875 39.6003C215.89 41.0003 215.871 42.3005 215.817 43.501C215.762 44.6348 215.646 46.2359 215.469 48.3042L184.47 48.5742C184.581 52.7067 185.512 55.5987 187.263 57.2502C189.081 58.901 192.256 59.7068 196.789 59.6673C199.789 59.6411 202.887 59.3808 206.082 58.8863C209.276 58.3918 211.904 57.8022 213.963 57.1176ZM195.061 29.0812C190.995 29.1166 188.17 29.9413 186.587 31.5551C185.071 33.1684 184.336 36.0749 184.381 40.2746L205.28 40.0926L205.257 37.9928C205.154 34.5935 204.362 32.267 202.882 31.0132C201.401 29.6927 198.794 29.0487 195.061 29.0812ZM281.82 5.92483L282.493 68.6212L271.193 68.7196L270.726 25.2221L256.762 56.5449L246.862 56.6311L232.327 25.4566L232.795 69.054L221.495 69.1525L220.822 6.45607L235.621 6.32718L251.904 41.8867L267.52 6.04937L281.82 5.92483ZM350.864 5.32351L351.537 68.0199L340.237 68.1183L339.77 24.6208L325.806 55.9435L315.906 56.0298L301.371 24.8552L301.839 68.4527L290.539 68.5511L289.866 5.85475L304.666 5.72586L320.948 41.2853L336.564 5.44804L350.864 5.32351ZM366.483 67.8897L353.884 67.9995L377.21 5.09405L389.609 4.98606L413.881 67.4769L401.282 67.5867L396.645 54.8266L370.746 55.0521L366.483 67.8897ZM383.233 16.542C382.527 19.0816 381.722 21.7554 380.819 24.5633C379.982 27.3707 379.177 29.9778 378.403 32.3846L374.139 45.1222L393.039 44.9576L388.502 32.2967C387.746 30.1699 386.886 27.7106 385.923 24.9189C384.959 22.0605 384.062 19.2682 383.233 16.542Z" fill="#1500F6"/>
<path d="M425.521 67.3755L414.221 67.474L414.102 56.3746L425.402 56.2762L425.521 67.3755ZM438.461 67.2628L425.861 67.3726L449.188 4.46718L461.587 4.35919L485.859 66.85L473.26 66.9598L468.622 54.1997L442.723 54.4253L438.461 67.2628ZM455.211 15.9151C454.505 18.4547 453.7 21.1285 452.797 23.9364C451.96 26.7438 451.155 29.3509 450.381 31.7578L446.117 44.4954L465.016 44.3308L460.48 31.6698C459.724 29.543 458.864 27.0837 457.901 24.292C456.937 21.4336 456.04 18.6413 455.211 15.9151ZM499.628 4.02789L500.301 66.7243L488.301 66.8288L487.628 4.13239L499.628 4.02789Z" fill="white"/>
</svg>
