<svg width="36" height="36" viewBox="0 0 36 36" fill="none" xmlns="http://www.w3.org/2000/svg">
<path d="M17.9934 28.5C17.6728 28.5 17.4062 28.3922 17.1938 28.1766C16.9813 27.9609 16.875 27.6938 16.875 27.375V19.125H8.625C8.30625 19.125 8.03906 19.0166 7.82344 18.7997C7.60781 18.5828 7.5 18.314 7.5 17.9934C7.5 17.6728 7.60781 17.4062 7.82344 17.1938C8.03906 16.9813 8.30625 16.875 8.625 16.875H16.875V8.625C16.875 8.30625 16.9834 8.03906 17.2003 7.82344C17.4172 7.60781 17.686 7.5 18.0066 7.5C18.3272 7.5 18.5938 7.60781 18.8063 7.82344C19.0188 8.03906 19.125 8.30625 19.125 8.625V16.875H27.375C27.6938 16.875 27.9609 16.9834 28.1766 17.2003C28.3922 17.4172 28.5 17.686 28.5 18.0066C28.5 18.3272 28.3922 18.5938 28.1766 18.8063C27.9609 19.0188 27.6938 19.125 27.375 19.125H19.125V27.375C19.125 27.6938 19.0166 27.9609 18.7997 28.1766C18.5828 28.3922 18.314 28.5 17.9934 28.5Z" fill="#E7E7E7"/>
</svg>
